<svg width="109" height="90" viewBox="0 0 109 90" fill="none" xmlns="http://www.w3.org/2000/svg">
<path d="M23.4189 45.1347V61.7023H27.1307V43.451L23.4189 45.1347Z" fill="#0087B5"/>
<path d="M29.4673 49.2654V61.7023H33.1354V50.9266L29.4673 49.2654Z" fill="#0087B5"/>
<path d="M43.4629 58.0431C43.4629 56.8757 43.4629 54.743 43.4629 53.0818C43.4629 51.4205 42.6988 49.4225 39.5328 49.4225C37.7206 49.4225 35.7773 50.5001 35.3843 51.0838V53.0369H35.9738C36.2795 51.3756 37.6551 51.0838 38.2228 51.0838C39.118 51.0838 39.7511 51.5103 39.7511 52.7001C39.7511 53.8899 39.7511 54.5185 39.7511 54.5185C39.0306 54.1369 38.2664 53.9124 37.5896 53.9124C36.9127 53.9124 34.4673 53.9124 34.4673 57.8186C34.4673 61.7248 36.869 61.9493 37.7642 61.9493C38.6594 61.9493 39.4891 61.2084 40.0132 61.2084L40.1005 61.7248H43.7468C43.5721 60.0411 43.4629 59.188 43.4629 58.0431ZM39.773 59.7492C39.773 60.1309 38.0481 61.0962 38.0481 57.7512C38.0481 54.541 39.773 55.9328 39.773 55.9328C39.773 55.9328 39.773 59.39 39.773 59.7492Z" fill="#0087B5"/>
<path d="M78.2447 58.0431C78.2447 56.8757 78.2447 54.743 78.2447 53.0818C78.2447 51.4205 77.4805 49.4225 74.3145 49.4225C72.5023 49.4225 70.5591 50.5001 70.1661 51.0838V53.0369H70.7556C71.0613 51.3756 72.4368 51.0838 73.0045 51.0838C73.8997 51.0838 74.5329 51.5103 74.5329 52.7001C74.5329 53.8899 74.5329 54.5185 74.5329 54.5185C73.8124 54.1369 73.0482 53.9124 72.3713 53.9124C71.6944 53.9124 69.249 53.9124 69.249 57.8186C69.249 61.7248 71.6508 61.9493 72.546 61.9493C73.4412 61.9493 74.2709 61.2084 74.7949 61.2084L74.8822 61.7248H78.5504C78.332 60.0411 78.2447 59.188 78.2447 58.0431ZM74.5329 59.7492C74.5329 60.1309 72.808 61.0962 72.808 57.7512C72.808 54.541 74.5329 55.9328 74.5329 55.9328C74.5329 55.9328 74.5329 59.39 74.5329 59.7492Z" fill="#0087B5"/>
<path d="M51.6941 49.4899C51.3884 49.4899 50.1876 49.8715 49.205 50.5001V43.5183L45.4277 45.1347V61.7023L48.3535 60.8717C48.3535 60.8717 49.8819 61.9941 51.3011 61.9941C52.6985 61.9941 55.5369 61.7247 55.5369 55.5063C55.5369 49.2654 52.0216 49.4899 51.6941 49.4899ZM50.1657 60.7145C49.7946 60.7145 49.3579 60.4676 49.3579 59.7268C49.3579 59.0308 49.3579 53.4634 49.3579 52.4756C49.3579 52.0715 49.4452 51.5328 50.2967 51.5552C50.8863 51.5777 51.4321 52.5205 51.4321 55.9553C51.4103 59.5921 50.7553 60.7145 50.1657 60.7145Z" fill="#0087B5"/>
<path d="M56.8472 50.8368V61.7023H60.5371V49.2654L56.8472 50.8368Z" fill="#0087B5"/>
<path d="M56.105 46.1C56.105 44.6857 57.2185 43.5408 58.5941 43.5408C59.9696 43.5408 61.0832 44.6857 61.0832 46.1C61.0832 47.5143 59.9696 48.6592 58.5941 48.6592C57.2185 48.6592 56.105 47.5143 56.105 46.1Z" fill="#E4032E"/>
<path d="M66.4542 45.2245L62.6987 46.8857C62.6987 46.8857 62.6987 56.4941 62.6987 58.4471C62.6987 60.4002 64.2271 61.9268 65.9083 61.9268C67.5896 61.9268 68.4848 60.7594 68.4848 60.5349C68.4848 60.3104 68.4848 58.492 68.4848 58.492H67.8953C67.8953 58.492 67.8953 58.9186 67.8953 59.1431C67.8953 59.3676 67.9389 60.0635 67.1311 60.0635C66.3232 60.0635 66.5415 58.9859 66.5415 58.8512C66.5415 58.7165 66.5415 51.7123 66.5415 51.7123H68.3101V50.096L66.4979 50.0511L66.4542 45.2245Z" fill="#0087B5"/>
<path d="M83.9649 45.2245L80.2095 46.8857C80.2095 46.8857 80.2095 56.4941 80.2095 58.4471C80.2095 60.4002 81.7379 61.9268 83.4191 61.9268C85.1003 61.9268 85.9955 60.7594 85.9955 60.5349C85.9955 60.3104 85.9955 58.492 85.9955 58.492H85.4278C85.4278 58.492 85.4278 58.9186 85.4278 59.1431C85.4278 59.3676 85.4715 60.0635 84.6636 60.0635C83.8558 60.0635 84.0741 58.9859 84.0741 58.8512C84.0741 58.7165 84.0741 51.7123 84.0741 51.7123H85.8427V50.096L84.0304 50.0511L83.9649 45.2245Z" fill="#0087B5"/>
<path d="M48.7687 68.4146C47.8517 68.4146 46.9128 69.0881 46.8037 70.6147H45.9521V68.6167C46.629 67.1799 47.8954 66.3942 49.6639 66.3942C51.4325 66.3942 54.5766 67.6065 54.5766 71.4453C54.5766 72.3882 54.2709 73.4208 53.7688 74.229C52.1749 76.7209 48.8997 77.8882 48.8997 79.0107C50.3845 79.0556 50.7993 79.3923 51.1487 79.7515C51.5198 80.1332 51.9129 80.3577 52.3714 80.3577C52.8299 80.3577 53.6814 79.5719 53.6814 78.5393H54.8168C54.8168 80.0658 54.0089 83.1863 51.6945 83.1863C49.4019 83.1863 49.0744 81.8393 48.1792 81.8393C47.284 81.8393 47.2404 83.0516 47.2404 83.0516H45.4718C45.4718 83.0516 45.3408 80.6944 46.9565 78.1801C48.5722 75.6658 50.5591 74.7453 50.5591 71.1759C50.5591 69.38 50.2535 68.4146 48.7687 68.4146Z" fill="#0087B5"/>
<path d="M56.1703 75.3515L55.3624 75.2168L55.9519 66.484C55.9519 66.484 56.8471 67.6065 59.4235 67.6065C62 67.6065 62.5458 66.2595 62.5458 66.2595L63.3537 67.1799C62.8297 68.7065 61.5415 70.0983 59.4672 70.3902C58.8995 70.48 58.1572 70.4351 57.393 70.4351L57.2183 72.8596C57.2183 72.8596 58.2227 72.5453 59.3362 72.5453C60.4716 72.5453 64.0305 72.7249 64.0305 77.8434C64.0305 79.8414 63.2008 81.3679 61.8253 82.2434C60.4279 83.4108 56.4541 83.5006 55.144 81.974V79.7516H55.8646C56.2358 81.0985 56.4978 81.7046 57.9825 81.7046C59.4672 81.7046 60.1441 79.9312 60.1441 78.1352C60.1441 76.3168 59.3799 74.7005 57.5676 74.7005C56.3449 74.6556 56.1703 75.3515 56.1703 75.3515Z" fill="#0087B5"/>
<path d="M57.1745 34.1345C56.847 34.2692 56.454 34.4264 56.1047 34.2243C55.9955 34.5611 55.6462 34.3366 55.3841 34.4264L55.1221 34.157C54.751 34.6509 54.0741 34.2019 53.5938 34.3141C53.8994 33.708 53.2881 32.5406 54.3143 32.2712C55.2313 32.159 56.192 32.4733 57.1964 32.4059L57.1745 34.1345Z" fill="#76B82A"/>
<path d="M45.3188 8.36269V38.0183H53.594V5.01774L45.3188 8.36269Z" fill="#0087B5"/>
<path d="M57.1748 16.7812V37.9509H65.5154V20.1935L57.1748 16.7812Z" fill="#0087B5"/>
<path d="M42.3713 33.6855H42.4805V33.8427H42.3713V33.6855ZM45.3408 34.8978C44.5111 35.459 43.6595 34.0223 43.0045 35.1672C42.2621 35.3917 41.4979 34.7406 40.9521 35.3692C40.4281 34.6733 40.0569 35.908 39.5984 35.3692C39.1399 36.0203 38.6158 34.8753 38.2228 35.6386C37.6333 35.5713 36.9128 35.7958 36.3451 36.1101C35.4062 36.1101 34.6202 36.3795 33.7905 36.6937C33.2228 36.3795 32.4804 37.1652 31.8036 36.9631C31.3451 37.5019 30.7555 37.0754 30.297 37.3448C29.9259 37.3897 29.5547 37.9958 29.2053 37.5019C28.8778 38.0856 27.9389 37.9958 27.6769 38.5346C28.5285 38.8489 29.3363 39.1856 30.297 39.455C30.4499 39.7917 30.8647 39.5224 31.0176 39.9264C30.0132 40.5326 29.1398 39.3428 28.201 39.455C27.3494 38.8713 26.1704 39.1183 25.3188 38.5346C26.0394 37.5693 27.3058 36.9182 28.463 36.9631C28.8778 36.2672 29.5547 36.2672 29.9914 36.0427C30.2097 36.0427 30.4062 36.1101 30.559 36.3121C30.8211 36.1999 30.7119 35.7733 31.0831 35.9305C31.3014 35.8856 31.7599 35.6611 31.9783 35.7733C32.8298 35.2345 33.5503 35.2345 34.5329 35.01C34.8604 35.3468 35.166 34.4264 35.5154 35.01C35.6682 34.6958 36.0394 34.6958 36.2359 34.9427C36.3014 34.3366 37.0219 34.5611 37.4368 34.4713C37.6551 34.359 37.6551 34.6733 37.7643 34.7406C37.9171 34.5386 37.8735 34.2468 38.1355 34.0896C38.3975 34.0223 38.594 34.5611 38.7687 34.0896C39.6202 34.2019 40.5591 33.9325 41.3888 33.6182L41.6508 33.8876L41.5853 33.9998C41.6289 34.0447 41.6508 34.1121 41.7381 34.0672L41.9346 33.8651C41.8255 33.8202 41.8691 33.708 41.8691 33.5957C41.9783 33.4386 42.1311 33.3937 42.3276 33.3937L42.5241 33.5957C43.0045 32.7876 43.6377 34.0223 44.1399 33.259C44.5766 33.4386 45.0132 33.1916 45.3844 33.1916L45.3408 34.8978Z" fill="#76B82A"/>
<path d="M84.5982 35.4141C84.4017 35.0325 84.1396 35.4141 83.8776 35.4141L83.6811 34.6733C83.4846 34.606 83.3099 34.7856 83.2226 34.8754C82.6549 34.606 82.1091 35.5713 81.8034 34.606C81.6069 34.5611 81.4759 34.6509 81.3449 34.6733L81.1484 34.1345C80.9519 34.1345 80.8864 34.2917 80.7772 34.4039C80.1003 34.359 80.0348 34.7182 79.4235 34.606C79.6855 34.4039 79.358 34.2243 79.358 34.0223C78.7903 34.0223 78.8776 34.7856 78.6156 35.1447C78.5064 35.1896 78.4191 35.0325 78.3536 34.9427C78.2008 34.5611 78.6156 34.6733 78.7248 34.4039C78.6593 34.1794 78.834 33.8876 78.5501 33.7529H78.5283C78.4628 33.7304 78.4191 33.7529 78.3754 33.7529C78.1789 33.8202 78.2226 34.1794 77.9606 34.2019C77.7859 34.1121 77.5676 33.9549 77.4802 33.7529C77.4584 33.6855 77.4366 33.6182 77.4366 33.5508C77.1964 33.3263 76.8907 33.5059 76.716 33.7529C76.6724 33.8202 76.6287 33.8876 76.6069 33.9325C76.3449 33.7978 75.7772 34.1794 75.6462 33.7529C75.6243 33.708 75.6243 33.6406 75.6243 33.5508C75.5588 33.6406 75.4933 33.708 75.406 33.7529C75.1221 33.9325 74.7291 33.9549 74.7291 34.4039L74.5326 34.2019L74.5981 34.1345C74.6418 34.0223 74.6855 33.8876 74.7073 33.7529C74.7291 33.5508 74.7073 33.3263 74.5326 33.2141C74.0304 33.259 74.0741 33.5059 74.1614 33.7529C74.2706 34.0447 74.489 34.3815 74.1396 34.5835C73.8558 34.4488 73.7903 34.0672 73.7903 33.7529C73.7903 33.6406 73.7903 33.5508 73.8121 33.4835C73.6156 33.4386 73.4846 33.4835 73.3536 33.6855C72.8951 32.6753 71.7379 33.2141 71.1702 33.2141V32.8998C70.5807 33.5059 70.1658 32.6304 69.6418 32.4284C69.1833 33.2366 69.0086 32.1141 68.5501 32.4284C68.3317 33.0345 67.9606 32.4284 67.5457 32.7427C67.0654 32.2712 66.0391 32.2488 65.668 33.0794C65.7335 33.3039 65.7771 33.5284 65.8426 33.7304C65.9736 34.1121 66.1483 34.4488 66.5632 34.6509C67.0217 34.8754 67.0872 34.3141 67.2837 34.1794C67.4802 34.4937 67.8732 34.606 68.1134 34.5611C69.0959 35.5713 68.7029 33.5284 69.4671 33.9774C69.5108 34.1345 69.3579 34.1794 69.2706 34.2468C68.9431 34.5835 69.5326 34.7407 69.7291 34.8305C70.2968 34.606 71.1483 35.3243 71.5195 34.6284C71.585 35.1672 72.1527 34.9427 72.4584 34.6284L72.6112 35.0998C72.8077 35.1672 72.8732 35.0325 72.9824 34.8978L73.1789 35.0998C73.8558 34.6284 74.5545 35.8407 74.9693 34.8305C75.2313 34.8754 75.5588 35.2121 75.799 34.8305L75.9518 35.0325C76.2139 35.1447 76.6287 35.1896 76.7815 34.8305L76.8907 35.3692C77.0436 35.4366 77.1091 35.3019 77.2182 35.2121C77.2182 35.0998 77.2619 34.9876 77.1527 34.8978L77.6767 34.5611C77.8296 34.7856 77.7422 35.0998 77.7859 35.3692C77.8951 35.5713 78.0479 35.5937 78.2444 35.5713C78.5719 35.6386 78.5719 35.2345 78.7029 35.0325C79.0086 35.5039 79.4235 34.8754 79.7947 35.2345C80.1003 35.1223 80.2095 35.7733 80.5152 35.3917L80.7772 35.706C81.3667 35.8631 81.4977 35.4815 82.0436 35.2345C82.4584 35.7733 83.0479 35.3019 83.2881 35.8407C83.6593 35.8407 83.9213 35.6162 84.2925 35.9529C84.5982 35.9529 84.62 35.6386 84.5982 35.4141ZM68.5501 34.2243V33.7753L68.8121 34.0447L68.5501 34.2243ZM70.2313 34.0223L70.1658 33.9549L70.4278 33.7753L70.537 33.6855L70.4715 33.7753L70.2313 34.0223ZM71.585 34.4264L71.323 34.0447H71.585V34.4264ZM72.3492 34.2243C72.4147 34.0672 72.24 33.9549 72.1527 33.8427C72.1745 33.8202 72.1964 33.7978 72.2182 33.7753C72.2619 33.708 72.3055 33.6406 72.4147 33.6855C72.4147 33.708 72.4365 33.7304 72.4365 33.7753C72.4365 33.8876 72.4366 34.1121 72.3492 34.2243ZM77.0217 34.8754V34.6733L77.0872 34.7856L77.0217 34.8754ZM77.0872 34.4937L77.0217 34.2917H77.0872V34.4937Z" fill="#76B82A"/>
</svg>
